<svg xmlns="http://www.w3.org/2000/svg" xmlns:xlink="http://www.w3.org/1999/xlink" width="366" height="205.659" viewBox="0 0 366 205.659">
  <defs>
    <style>
      .cls-1 {
        fill: url(#linear-gradient);
      }

      .cls-2 {
        fill: #fff7e1;
      }

      .cls-3 {
        fill: #f59209;
      }

      .cls-4 {
        filter: url(#Rectangle_5);
      }
    </style>
    <linearGradient id="linear-gradient" x1="0.25" x2="1.065" y2="1.318" gradientUnits="objectBoundingBox">
      <stop offset="0" stop-color="#f2db06" />
      <stop offset="1" stop-color="#f8520b" />
    </linearGradient>
    <filter id="Rectangle_5" x="0" y="0" width="205.659" height="205.659" filterUnits="userSpaceOnUse">
      <feOffset input="SourceAlpha" />
      <feGaussianBlur stdDeviation="22" result="blur" />
      <feFlood flood-color="#fde0b8" />
      <feComposite operator="in" in2="blur" />
      <feComposite in="SourceGraphic" />
    </filter>
  </defs>
  <g id="Group_9" data-name="Group 9" transform="translate(-2562 1518.019)">
    <g id="Group_2" data-name="Group 2">
      <g id="Group_14" data-name="Group 14">
        <g class="cls-4" transform="matrix(1, 0, 0, 1, 2562, -1518.02)">
          <path id="Rectangle_5-2" data-name="Rectangle 5" class="cls-1" d="M0,22.589A22.589,22.589,0,0,1,22.589,0H51.07A22.589,22.589,0,0,1,73.659,22.589V51.07A22.589,22.589,0,0,1,51.07,73.659H22.589A22.589,22.589,0,0,1,0,51.07Z" transform="translate(66 66)" />
        </g>
        <path id="O" class="cls-2" d="M6.173,6.313Q12.407,0,22.839,0t16.6,6.313q6.234,6.313,6.234,17.125T39.443,40.563q-6.173,6.313-16.6,6.313T6.173,40.563Q0,34.25,0,23.438T6.173,6.313Zm7.716,28.063q3.21,3.75,8.95,3.75t8.889-3.75q3.21-3.75,3.21-10.938T31.727,12.5q-3.148-3.75-8.889-3.75t-8.95,3.75Q10.74,16.25,10.74,23.438T13.888,34.375Z" transform="translate(2641.955 -1438.64)" />
      </g>
      <path id="nboard" d="M14.19,11.77q5.28,0,7.975,2.585,2.695,2.53,2.695,8.25V41.8H20.075V22.935q0-7.095-6.6-7.095-4.895,0-6.765,2.75T4.84,26.51V41.8H0V12.32H3.9l.715,4.015h.275a8.557,8.557,0,0,1,3.96-3.41A12.7,12.7,0,0,1,14.19,11.77Z" transform="translate(2706.796 -1433.909)" />
      <path id="nboard-2" data-name="nboard" d="M36.913,10.175q0,1.87-.11,3.52-.055,1.595-.165,2.53h.275a10.272,10.272,0,0,1,3.465-3.135,11.269,11.269,0,0,1,5.665-1.265,11.008,11.008,0,0,1,8.8,3.85Q58.2,19.47,58.2,27.059T54.843,38.5a11.11,11.11,0,0,1-8.8,3.85,11.269,11.269,0,0,1-5.665-1.265,10.815,10.815,0,0,1-3.465-3.025h-.385l-.99,3.74H32.073V0h4.84Zm8.3,5.665q-4.675,0-6.49,2.695t-1.815,8.36v.22q0,5.445,1.76,8.36,1.815,2.86,6.655,2.86a6.565,6.565,0,0,0,5.885-2.915Q53.193,32.5,53.193,27,53.193,15.84,45.218,15.84Z" transform="translate(2706.796 -1433.909)" />
      <path id="nboard-3" data-name="nboard" d="M89.615,27q0,7.315-3.74,11.33-3.685,4.015-10.01,4.015a13.825,13.825,0,0,1-6.985-1.76A12.731,12.731,0,0,1,64.1,35.364,18.281,18.281,0,0,1,62.336,27q0-7.315,3.685-11.275t10.01-3.96a13.418,13.418,0,0,1,7.04,1.815,11.911,11.911,0,0,1,4.785,5.17A17.6,17.6,0,0,1,89.615,27ZM67.341,27a14.887,14.887,0,0,0,2.035,8.3q2.09,3.025,6.6,3.025,4.455,0,6.545-3.025A14.582,14.582,0,0,0,84.61,27q0-5.225-2.09-8.195t-6.6-2.97q-4.51,0-6.545,2.97T67.341,27Z" transform="translate(2706.796 -1433.909)" />
      <path id="nboard-4" data-name="nboard" d="M106.526,11.825q5.39,0,7.975,2.365t2.585,7.535V41.8h-3.52l-.935-4.18h-.22a13.479,13.479,0,0,1-4.07,3.575,12.169,12.169,0,0,1-5.83,1.155,10.389,10.389,0,0,1-6.655-2.09q-2.64-2.145-2.64-6.655a7.7,7.7,0,0,1,3.465-6.765q3.465-2.42,10.67-2.64l5-.165v-1.76q0-3.685-1.595-5.115a6.527,6.527,0,0,0-4.51-1.43,13.5,13.5,0,0,0-4.4.715,28.86,28.86,0,0,0-3.9,1.54l-1.485-3.63a21.183,21.183,0,0,1,4.565-1.76A19.542,19.542,0,0,1,106.526,11.825Zm1.43,15.73q-5.5.22-7.645,1.76a5.081,5.081,0,0,0-2.09,4.345,4.312,4.312,0,0,0,1.485,3.63,6.329,6.329,0,0,0,3.9,1.155,9.461,9.461,0,0,0,6.215-2.035q2.475-2.09,2.475-6.38v-2.64Z" transform="translate(2706.796 -1433.909)" />
      <path id="nboard-5" data-name="nboard" d="M138.015,11.77a15.1,15.1,0,0,1,1.76.11,10.2,10.2,0,0,1,1.7.22l-.6,4.455a15.9,15.9,0,0,0-1.595-.275,12.071,12.071,0,0,0-1.595-.11,7.728,7.728,0,0,0-4.235,1.265,8.857,8.857,0,0,0-3.19,3.465,10.973,10.973,0,0,0-1.155,5.17V41.8h-4.84V12.32h3.96l.55,5.39H129a14.843,14.843,0,0,1,3.685-4.18A8.414,8.414,0,0,1,138.015,11.77Z" transform="translate(2706.796 -1433.909)" />
      <path id="nboard-6" data-name="nboard" d="M154.435,42.349a11.079,11.079,0,0,1-8.8-3.795q-3.3-3.85-3.3-11.44t3.3-11.44a11.1,11.1,0,0,1,8.855-3.9,10.834,10.834,0,0,1,5.555,1.265,11.766,11.766,0,0,1,3.575,3.08h.33q-.055-.715-.22-2.09-.11-1.43-.11-2.255V0h4.84V41.8h-3.9l-.715-3.96h-.22a11.415,11.415,0,0,1-3.52,3.19A10.887,10.887,0,0,1,154.435,42.349Zm.77-4.015q4.675,0,6.545-2.53,1.925-2.585,1.925-7.755v-.88q0-5.5-1.815-8.415-1.815-2.97-6.71-2.97a6.512,6.512,0,0,0-5.885,3.135,15.556,15.556,0,0,0-1.925,8.3q0,5.28,1.925,8.195A6.7,6.7,0,0,0,155.205,38.334Z" transform="translate(2706.796 -1433.909)" />
    </g>
    <path id="Teacher" class="cls-3" d="M4.3,10.45H3.066V1.719H0V.632H7.356V1.719H4.3Z" transform="translate(2880.543 -1452.648)" />
    <path id="Teacher-2" data-name="Teacher" class="cls-3" d="M10.07,2.942a3.049,3.049,0,0,1,1.622.412,2.646,2.646,0,0,1,1.045,1.169,3.86,3.86,0,0,1,.371,1.746V7H8.062A2.83,2.83,0,0,0,8.695,8.91a2.267,2.267,0,0,0,1.719.646,5.538,5.538,0,0,0,1.237-.124,7.461,7.461,0,0,0,1.127-.385v1.059a5.412,5.412,0,0,1-1.114.357,6.019,6.019,0,0,1-1.306.124A3.931,3.931,0,0,1,8.5,10.161,3.028,3.028,0,0,1,7.251,8.9a4.484,4.484,0,0,1-.44-2.076,4.935,4.935,0,0,1,.4-2.076,3,3,0,0,1,2.86-1.8Zm-.014.99A1.76,1.76,0,0,0,8.681,4.5a2.617,2.617,0,0,0-.591,1.54h3.754a2.551,2.551,0,0,0-.44-1.512A1.548,1.548,0,0,0,10.056,3.932Z" transform="translate(2880.543 -1452.648)" />
    <path id="Teacher-3" data-name="Teacher" class="cls-3" d="M17.294,2.956a2.879,2.879,0,0,1,1.994.591,2.441,2.441,0,0,1,.646,1.884V10.45h-.88L18.821,9.4h-.055a3.37,3.37,0,0,1-1.017.894,3.042,3.042,0,0,1-1.457.289,2.6,2.6,0,0,1-1.664-.522,2.018,2.018,0,0,1-.66-1.664,1.925,1.925,0,0,1,.866-1.691A4.977,4.977,0,0,1,17.5,6.05l1.251-.041v-.44a1.667,1.667,0,0,0-.4-1.279,1.632,1.632,0,0,0-1.127-.357,3.375,3.375,0,0,0-1.1.179,7.215,7.215,0,0,0-.976.385l-.371-.907a5.3,5.3,0,0,1,1.141-.44A4.886,4.886,0,0,1,17.294,2.956Zm.357,3.932a3.706,3.706,0,0,0-1.911.44,1.27,1.27,0,0,0-.522,1.086,1.078,1.078,0,0,0,.371.907,1.582,1.582,0,0,0,.976.289A2.365,2.365,0,0,0,18.119,9.1a1.971,1.971,0,0,0,.619-1.595v-.66Z" transform="translate(2880.543 -1452.648)" />
    <path id="Teacher-4" data-name="Teacher" class="cls-3" d="M24.686,10.587a3.741,3.741,0,0,1-1.746-.4,2.843,2.843,0,0,1-1.2-1.237,4.726,4.726,0,0,1-.426-2.145,4.7,4.7,0,0,1,.454-2.214,2.884,2.884,0,0,1,1.224-1.251,3.856,3.856,0,0,1,1.774-.4,4.7,4.7,0,0,1,1.086.124,3.583,3.583,0,0,1,.852.275l-.371,1a7.155,7.155,0,0,0-.77-.234A3.41,3.41,0,0,0,24.741,4q-2.172,0-2.172,2.791a3.433,3.433,0,0,0,.522,2.049,1.867,1.867,0,0,0,1.581.7,4.046,4.046,0,0,0,1.059-.124,5.156,5.156,0,0,0,.852-.3v1.072a3.247,3.247,0,0,1-.825.289A4.488,4.488,0,0,1,24.686,10.587Z" transform="translate(2880.543 -1452.648)" />
    <path id="Teacher-5" data-name="Teacher" class="cls-3" d="M29.064,3.066A7.3,7.3,0,0,1,29,4.1h.082a2.28,2.28,0,0,1,.962-.852,3.115,3.115,0,0,1,1.334-.289A2.818,2.818,0,0,1,33.4,3.6a2.7,2.7,0,0,1,.674,2.049v4.8h-1.2V5.734q0-1.774-1.65-1.774a1.9,1.9,0,0,0-1.7.7,3.6,3.6,0,0,0-.454,1.98V10.45h-1.21V0h1.21Z" transform="translate(2880.543 -1452.648)" />
    <path id="Teacher-6" data-name="Teacher" class="cls-3" d="M38.719,2.942a3.049,3.049,0,0,1,1.622.412,2.646,2.646,0,0,1,1.045,1.169,3.86,3.86,0,0,1,.371,1.746V7H36.712a2.83,2.83,0,0,0,.632,1.911,2.267,2.267,0,0,0,1.719.646A5.538,5.538,0,0,0,40.3,9.432a7.461,7.461,0,0,0,1.127-.385v1.059a5.412,5.412,0,0,1-1.114.357,6.019,6.019,0,0,1-1.306.124,3.931,3.931,0,0,1-1.856-.426A3.028,3.028,0,0,1,35.9,8.9a4.484,4.484,0,0,1-.44-2.076,4.935,4.935,0,0,1,.4-2.076,3,3,0,0,1,2.86-1.8Zm-.014.99A1.76,1.76,0,0,0,37.33,4.5a2.617,2.617,0,0,0-.591,1.54h3.754a2.551,2.551,0,0,0-.44-1.512A1.548,1.548,0,0,0,38.705,3.932Z" transform="translate(2880.543 -1452.648)" />
    <path id="Teacher-7" data-name="Teacher" class="cls-3" d="M46.59,2.942a3.776,3.776,0,0,1,.44.027,2.55,2.55,0,0,1,.426.055l-.151,1.114a3.976,3.976,0,0,0-.4-.069,3.018,3.018,0,0,0-.4-.028,1.932,1.932,0,0,0-1.059.316,2.214,2.214,0,0,0-.8.866,2.743,2.743,0,0,0-.289,1.292V10.45h-1.21V3.08h.99l.138,1.347h.055a3.711,3.711,0,0,1,.921-1.045A2.1,2.1,0,0,1,46.59,2.942Z" transform="translate(2880.543 -1452.648)" />
  </g>
</svg>